<svg width="16" height="16" viewBox="0 0 16 16" fill="none" xmlns="http://www.w3.org/2000/svg">
  <path fill-rule="evenodd" clip-rule="evenodd" d="M8 0C3.58 0 0 3.58 0 8C0 11.54 2.29 14.41 5.47 15.42C5.88 15.5 6.02 15.26 6.02 15.06C6.02 14.87 6.01 14.26 6.01 13.49C4 13.91 3.48 12.7 3.48 12.7C3.13 11.79 2.63 11.55 2.63 11.55C1.97 11.1 2.68 11.11 2.68 11.11C3.4 11.17 3.77 11.88 3.77 11.88C4.41 13 5.5 12.67 5.94 12.48C6 12 6.19 11.64 6.42 11.4C4.7 11.18 2.91 10.52 2.91 7.5C2.91 6.65 3.2 5.99 3.68 5.5C3.61 5.26 3.35 4.44 3.74 3.36C3.74 3.36 4.44 3.12 6.01 4.14C6.63 3.98 7.31 3.9 8 3.9C8.69 3.9 9.37 3.98 9.99 4.14C11.56 3.12 12.26 3.36 12.26 3.36C12.65 4.44 12.39 5.26 12.32 5.5C12.8 5.99 13.09 6.65 13.09 7.5C13.09 10.52 11.29 11.18 9.57 11.4C9.86 11.68 10.13 12.21 10.13 13C10.13 14.06 10.12 14.79 10.12 15.06C10.12 15.26 10.26 15.51 10.67 15.42C13.85 14.41 16.14 11.54 16.14 8C16.14 3.58 12.42 0 8 0Z" fill="white"/>
</svg>
